<svg id="Camada_1" data-name="Camada 1" xmlns="http://www.w3.org/2000/svg" xmlns:xlink="http://www.w3.org/1999/xlink" viewBox="0 0 517.36 416.24"><defs><style>.cls-1{fill:#fff;}.cls-2{fill:#303841;}</style><symbol id="Ícone_2_-_comentários_2" data-name="Ícone 2 - comentários 2" viewBox="0 0 327.33 269.76"><path class="cls-1" d="M162.74,262.26c-71.23,0-114.36-10-135.74-31.37C7.43,211.3,7.47,182.74,7.5,149.67v-4.15c0-35.82,3.82-61.84,22.84-80.87C52.47,42.52,95.86,30.79,163,28.8c1.58,0,3.37-.07,5.33-.07,21.47,0,62.58,2.82,78.14,7.24l2.37.68L315.64,11.7l-12,62.42,7.84,1.07c10.34,1.41,8.57,30.49,7.39,49.73-.45,7.39-.87,14.36-.87,20.64,0,34.75-1.47,62.91-19.85,82.72C276.66,251.46,233.63,262.26,162.74,262.26Z"/><path class="cls-2" d="M305.76,23.39l-8,41.54-3,15.55,14.93,2c.63,1.15,2,4.54,2.43,12.92.48,8.63-.15,19-.76,29-.46,7.5-.89,14.58-.89,21.09,0,34.19-1.29,59.77-17.85,77.62-19.71,21.25-62.2,31.58-129.92,31.58-68.16,0-110.83-9.54-130.43-29.17C14.94,208.2,15,182.37,15,149.68v-4.16c0-33.9,3.46-58.37,20.64-75.57C56.36,49.24,98.08,38.23,163.22,36.3c1.49,0,3.21-.07,5.1-.07,23.37,0,62.53,3.11,76.09,7l4.73,1.34,4.61-1.72,52-19.42M325.52,0l-77,28.76c-16.2-4.6-58-7.53-80.19-7.53-2,0-3.89,0-5.55.08C12.51,25.76,0,76.9,0,145.52s-3.5,124.24,162.73,124.24c158.77,0,162.76-55.6,162.77-124.2,0-27.91,9-74.8-13-77.8L325.52,0Z"/><circle class="cls-2" cx="86.51" cy="204.76" r="14.5"/><path class="cls-2" d="M86.51,197.76a7,7,0,1,1-7,7,7,7,0,0,1,7-7m0-15a22,22,0,1,0,22,22,22,22,0,0,0-22-22Z"/><circle class="cls-2" cx="159.51" cy="204.76" r="14.5"/><path class="cls-2" d="M159.51,197.76a7,7,0,1,1-7,7,7,7,0,0,1,7-7m0-15a22,22,0,1,0,22,22,22,22,0,0,0-22-22Z"/><circle class="cls-2" cx="232.51" cy="204.76" r="14.5"/><path class="cls-2" d="M232.51,197.76a7,7,0,1,1-7,7,7,7,0,0,1,7-7m0-15a22,22,0,1,0,22,22,22,22,0,0,0-22-22Z"/></symbol></defs><title>ballon</title><use width="327.33" height="269.76" transform="translate(0 0) scale(1.58 1.54)" xlink:href="#Ícone_2_-_comentários_2"/></svg>