<svg id="Camada_1" data-name="Camada 1" xmlns="http://www.w3.org/2000/svg" viewBox="0 0 765 765"><defs><style>.cls-1{fill:#333;}</style></defs><title>emoji-button</title><path class="cls-1" d="M976.5,204a341.3,341.3,0,1,1-133.3,26.9A340.3,340.3,0,0,1,976.5,204m0-40C765.25,164,594,335.25,594,546.5S765.25,929,976.5,929,1359,757.75,1359,546.5,1187.75,164,976.5,164Z" transform="translate(-594 -164)"/><ellipse class="cls-1" cx="243" cy="318" rx="40" ry="55"/><path class="cls-1" d="M837,430c9.54,0,18.62,5.17,25.59,14.56C870,454.49,874,467.79,874,482s-4,27.51-11.41,37.44c-7,9.39-16.05,14.56-25.59,14.56s-18.62-5.17-25.59-14.56C804.05,509.51,800,496.21,800,482s4-27.51,11.41-37.44c7-9.39,16.05-14.56,25.59-14.56m0-6c-23.75,0-43,26-43,58s19.25,58,43,58,43-26,43-58-19.25-58-43-58Z" transform="translate(-594 -164)"/><ellipse class="cls-1" cx="530" cy="318" rx="40" ry="55"/><path class="cls-1" d="M1124,430c9.54,0,18.62,5.17,25.59,14.56C1157,454.49,1161,467.79,1161,482s-4,27.51-11.41,37.44c-7,9.39-16,14.56-25.59,14.56s-18.62-5.17-25.59-14.56c-7.36-9.93-11.41-23.23-11.41-37.44s4-27.51,11.41-37.44c7-9.39,16-14.56,25.59-14.56m0-6c-23.75,0-43,26-43,58s19.25,58,43,58,43-26,43-58-19.25-58-43-58Z" transform="translate(-594 -164)"/><path class="cls-1" d="M979.5,829c-69.37,0-135.18-20.77-185.33-58.47-49-36.82-77.27-85.51-80-137.41L979.56,628H1245c-1,52.86-28.55,102.72-77.82,140.71C1116.72,807.59,1050.08,829,979.5,829Z" transform="translate(-594 -164)"/><path class="cls-1" d="M1241.88,631c-1,24.61-7.79,48.59-20.37,71.35-13.2,23.89-32.11,45.42-56.19,64s-52.32,33.32-83.6,43.59a333.16,333.16,0,0,1-202.88.52c-30.88-10-58.76-24.18-82.87-42.31s-43-39-56.59-62.36c-12.86-22.16-20.25-45.58-22-69.71L979.56,631h262.32m6.12-6H979.5l-268.42,5.18C714.71,741.75,834.74,832,979.5,832c147.29,0,268.5-93.44,268.5-207Z" transform="translate(-594 -164)"/></svg>