<svg id="Camada_1" data-name="Camada 1" xmlns="http://www.w3.org/2000/svg" viewBox="0 0 1322 969.28"><defs><style>.cls-1{fill:none;stroke:#333;stroke-miterlimit:10;stroke-width:60px;}</style></defs><title>friends</title><path class="cls-1" d="M965,293c-27.53,72.51-13,138-6.81,160.38A257.59,257.59,0,0,0,988,521c-114.7.27-208.1-90.38-212-198.5C771.48,197.29,889.28,112.34,988.5,110c57.09-1.35,101.1,24.81,121.5,39C1090.5,157.18,1001.47,197,965,293Z" transform="translate(-485 -79.95)"/><path class="cls-1" d="M680.87,858h-143a23.34,23.34,0,0,1-16.16-6.69A22.81,22.81,0,0,1,515,835.15h0A178.15,178.15,0,0,1,693.15,657h590.7c15.53.45,77.76,4,126,52.18C1426,725.31,1462.48,759.52,1454,782c-60-2-116-16-407-1C776,781,727,781,680.87,858Z" transform="translate(-485 -79.95)"/><circle class="cls-1" cx="714.88" cy="304.7" r="251.77"/><path class="cls-1" d="M1754.15,1019.23H677.85A22.86,22.86,0,0,1,655,996.37V959.23c0-98.39,79.76-178.15,162-178.27h765.71c114.5.12,194.26,79.88,194.26,178.27v37.14A22.86,22.86,0,0,1,1754.15,1019.23Z" transform="translate(-485 -79.95)"/></svg>