<svg id="Camada_1" data-name="Camada 1" xmlns="http://www.w3.org/2000/svg" viewBox="0 0 1175.49 741"><defs><style>.cls-1{fill:none;stroke:#333;stroke-miterlimit:10;stroke-width:60px;}</style></defs><title>left</title><path class="cls-1" d="M1250.31,923H651.17A41.17,41.17,0,0,1,610,881.83V283.17A41.17,41.17,0,0,1,651.17,242h598.66A41.17,41.17,0,0,1,1291,283.17h0a41.17,41.17,0,0,1-40.89,41.17l-504.38,3.39a41.17,41.17,0,0,0-40.89,41l-1.68,427.94A41.17,41.17,0,0,0,744.33,838h506a41.17,41.17,0,0,1,41.17,41.65l0,2.66A41.18,41.18,0,0,1,1250.31,923Z" transform="translate(-580 -212)"/><path class="cls-1" d="M811.1,679.7l540.76-6.41A23.86,23.86,0,0,1,1376,697.15V825.54c0,19.8,22.72,31,38.41,18.91l301.76-232.12a23.87,23.87,0,0,0,.57-37.38L1409,322.92c-15.58-12.76-39-1.67-39,18.46V467.54a23.86,23.86,0,0,1-22.42,23.82l-534,32.33a23.87,23.87,0,0,0-22.4,22.9L787,654.92A23.86,23.86,0,0,0,811.1,679.7Z" transform="translate(-580 -212)"/></svg>