<svg id="Camada_1" data-name="Camada 1" xmlns="http://www.w3.org/2000/svg" viewBox="0 0 897 897"><defs><style>.cls-1{fill:none;stroke:#333;stroke-miterlimit:10;stroke-width:60px;}</style></defs><title>options</title><circle class="cls-1" cx="448.89" cy="448.89" r="153.88"/><path class="cls-1" d="M1336.94,333.28l-83.84,84.85a14.83,14.83,0,0,0-3.75,14.37l.31,1.13a14.83,14.83,0,0,0,14.3,10.89h112.21A14.83,14.83,0,0,1,1391,459.35v162.3a14.83,14.83,0,0,1-14.83,14.83H1264.06a14.84,14.84,0,0,0-14,10l-5.53,16.21a14.82,14.82,0,0,0,3.61,15.34l91.42,90.34a14.84,14.84,0,0,1,.12,21l-114.1,115.45a14.82,14.82,0,0,1-21,.15l-91.89-90.43a14.83,14.83,0,0,0-16.37-3l-19,8.33a14.84,14.84,0,0,0-8.87,13.58V944.17A14.83,14.83,0,0,1,1053.65,959H891.35a14.83,14.83,0,0,1-14.83-14.83V834.83a14.83,14.83,0,0,0-9.62-13.89h0a14.84,14.84,0,0,0-15.79,3.49l-81.65,83a14.82,14.82,0,0,1-21,.16L633.05,793.56a14.83,14.83,0,0,1-.13-21L706,698.67a14.84,14.84,0,0,0,2.95-16.59l-16.54-36.21A14.83,14.83,0,0,0,679,637.2l-110.23-.64A14.83,14.83,0,0,1,554,621.73V459.53a14.85,14.85,0,0,1,15-14.84L678.72,446a14.83,14.83,0,0,0,13.71-8.76l7.38-16.47a14.86,14.86,0,0,0-3-16.55L630.2,337.46a14.84,14.84,0,0,1-.05-20.9L744.2,201.16a14.83,14.83,0,0,1,21.08,0l64.35,64.93a14.84,14.84,0,0,0,15.06,3.68l21.52-6.89a14.84,14.84,0,0,0,10.31-14.13V136.83A14.83,14.83,0,0,1,891.35,122h162.3a14.83,14.83,0,0,1,14.83,14.83V250.69a14.83,14.83,0,0,0,8.81,13.56l30.79,13.68a14.81,14.81,0,0,0,16.56-3.11c11.71-11.84,37.5-37.89,75.76-76.49a14.84,14.84,0,0,1,21-.12L1336.82,312.3A14.83,14.83,0,0,1,1336.94,333.28Z" transform="translate(-524 -92)"/></svg>