<svg id="Camada_1" data-name="Camada 1" xmlns="http://www.w3.org/2000/svg" viewBox="0 0 715.14 738.21"><defs><style>.cls-1{fill:#38b3a6;}</style></defs><title>submit-message</title><path class="cls-1" d="M1327,508.27C1326.49,457,1260.18,440,997,297c-231-125.51-330.45-194.25-372-158-13.45,11.74-13.48,60-13,156,.52,102.05-3.62,127.35,16,148.59,11.39,12.32,25.31,18.76,104,31.41,107.77,17.34,162.59,18.27,163,26,.44,8.31-62.23,21.17-170,43-61.57,12.47-76.39,14.45-91,30-21.54,22.93-17.75,49.86-18,148-.3,118-5.66,124.07,4,134,32.85,33.78,124.45-5.77,365-128C1298.86,568.52,1327.34,542.12,1327,508.27Z" transform="translate(-611.86 -129.35)"/></svg>